# xmcd
#
# Track frame offsets:
#	150
#	18052
#	38629
#	59930
#	85717
#	100554
#	113886
#	124153
#	135451
#	147362
#	160889
#	175113
#	189420
#	203560
#	221880
#
# Disc length: 3140 seconds
#
# Revision: 1
# Processed by: cddbd v1.4PL0 Copyright (c) Steve Scherf et al.
# Submitted via: EasyCDDAExtractor 5.1.0
#
DISCID=cb0c420f
DTITLE=Ann Peebles - Various
DYEAR=1900
DGENRE=Soul
TTITLE0=Bouncin' Back Bouncin' Back
TTITLE1=Full Time Lover
TTITLE2=Ain't No Business Like You
TTITLE3=I Can't Stand The Rain
TTITLE4=Walk Away
TTITLE5=Part Time Love
TTITLE6=I'll Get Alone
TTITLE7=Somebody On Your Case
TTITLE8=Do I Need You
TTITLE9=Come To Mama
TTITLE10=Doctor Love Power
TTITLE11=Beware
TTITLE12=Old Man With Young Ideas
TTITLE13=Didn' Take Your Man
TTITLE14=I Pity The Fool
EXTD=
EXTT0=
EXTT1=
EXTT2=
EXTT3=
EXTT4=
EXTT5=
EXTT6=
EXTT7=
EXTT8=
EXTT9=
EXTT10=
EXTT11=
EXTT12=
EXTT13=
EXTT14=
PLAYORDER=
